<?xml version="1.0" encoding="utf-8"?>
<!-- Generator: Adobe Illustrator 16.0.3, SVG Export Plug-In . SVG Version: 6.00 Build 0)  -->
<!DOCTYPE svg PUBLIC "-//W3C//DTD SVG 1.1//EN" "http://www.w3.org/Graphics/SVG/1.1/DTD/svg11.dtd">
<svg version="1.1" id="Layer_1" xmlns="http://www.w3.org/2000/svg" xmlns:xlink="http://www.w3.org/1999/xlink" x="0px" y="0px"
	 width="600px" height="616.381px" viewBox="0 0 600 616.381" enable-background="new 0 0 600 616.381" xml:space="preserve">
<rect y="0" fill="none" width="600" height="616.381"/>
<circle fill="#000" fill-opacity="0.25" cx="287.223" cy="307.551" r="242.599"/>
<path fill="#F6F6F5" d="M288.005,239.904c0,0-2.887-23.812,29.585-44.736c-15.154-36.079,25.254-45.459,25.254-45.459
	s-7.215-66.385,58.087-72.157c23.795-3.667,19.121-23.451,19.121-23.451s-8.658-15.875-22.008-3.606
	c18.188-27.945,48.89-6.672,58.58,2.567c9.693,9.236,23.048,39.6,5.279,77.165c11.184,4.33,15.513,15.875,15.513,15.875
	s1.082,5.051,0,8.658c-1.084,3.607,24.894,16.957,4.33,41.131c-9.38,21.982,10.062,14.256,15.181,21.982
	c5.12,7.726-2.047,14.096-11.574,19.146c-16.334,8.66,18.019,21.582,18.039,30.508c0.019,8.926-1.805,10.983-15.153,15.672
	c-13.347,4.69,18.254,10.336,18.761,20.566c0.507,10.23-12.893,18.518-17.582,20.323c24.573,16.209-7.812,23.94-7.812,23.94
	s-134.615,26.089-206.23-51.84C260.225,252.172,288.005,239.904,288.005,239.904z"/>
<path fill="#E6BE92" d="M372.068,548.735c-16.608,12.725-67.708,19.055-90.917-21.647c-1.804-44.015,13.893-123.03,13.893-123.03
	s43.833,42.937,122.123,24.536C392.634,496.422,388.677,536.011,372.068,548.735z"/>
<path fill="#BE8D65" d="M430.876,416.329c0,0-91.455,23.45-143.653-37.186c-0.064,16.597,7.819,24.916,7.819,24.916
	s40.226,45.461,122.123,24.536C424.351,426.734,430.876,416.329,430.876,416.329z"/>
<path fill="#DFB783" d="M472.367,358.962c0,0-17.92,50.995-41.49,57.366c-29.921,8.085-125.493,12.668-152.843-54.894
	c-8.13-40.524,2.98-49.014,2.98-49.014S325.526,373.394,472.367,358.962z"/>
<path fill="#CE9256" d="M481.608,348.027c0,0-142.778,24.407-207.753-57.432c3.967,18.666,7.159,21.827,7.159,21.827
	s42.172,60.973,187.917,46.908C475.982,358.541,481.608,348.027,481.608,348.027z"/>
<g>
	<path fill="#EDEDED" d="M405.396,191.111c-18.981-13.578-37.942-37.487-38.238-62.456c-0.174-14.689,6.521-30.01,20.757-35.713
		c5.784-2.32,12.571-3.341,18.79-2.532c4.9,0.638,4.839-7.049,0-7.679c-7.803-1.015-16.101,0.768-23.245,3.812
		c-15.704,6.688-22.838,23.309-23.909,39.441c-1.89,28.478,19.915,55.983,41.968,71.758
		C405.556,200.63,409.384,193.965,405.396,191.111L405.396,191.111z"/>
</g>
<g>
	<path fill="#EDEDED" d="M336.977,164.903c-2.65,7.953-1.784,17.372-0.111,25.382c4.612,22.096,20.759,40.092,38.069,53.535
		c3.859,3,9.336-2.395,5.429-5.429c-16.544-12.85-31.382-29.193-36.092-50.149c-1.521-6.765-2.067-14.769,0.11-21.299
		C345.952,162.234,338.535,160.231,336.977,164.903L336.977,164.903z"/>
</g>
<g>
	<path fill="#EDEDED" d="M312.083,206.412c-2.45,8.912-0.494,19.39,2.233,27.94c8.089,25.367,28.983,44.722,50.162,59.557
		c4.068,2.849,7.9-3.813,3.875-6.631c-19.869-13.917-39.32-32.038-46.899-55.8c-1.752-5.494-2.698-11.2-2.627-16.967
		c0.037-2.969,0.045-3.817,0.662-6.056C320.804,203.671,313.395,201.645,312.083,206.412L312.083,206.412z"/>
</g>
<g>
	<path fill="#EDEDED" d="M286.331,248.563c-0.122,11.851,4.007,24.141,9.164,34.619c12.589,25.573,37.085,41.983,63.584,50.62
		c4.722,1.539,6.728-5.876,2.042-7.404c-25.219-8.22-47.466-23.672-59.379-47.871c-4.487-9.117-7.836-19.974-7.732-29.963
		C294.061,243.61,286.381,243.614,286.331,248.563L286.331,248.563z"/>
</g>
<g>
	<path fill="#EDEDED" d="M473.388,203.731c-20.125-6.889-40.531-17.328-56.507-31.427c-13.173-11.625-19.609-26.212-19.641-43.919
		c-0.017-9.037,2.765-20.653,8.933-26.953c3.465-3.54-1.961-8.974-5.431-5.431c-7.165,7.319-10.119,18.543-11.008,28.394
		c-1.664,18.449,4.845,36.27,17.605,49.428c16.915,17.441,41.191,29.502,64.006,37.312
		C476.044,212.746,478.044,205.326,473.388,203.731L473.388,203.731z"/>
</g>
<g>
	<path fill="#EDEDED" d="M467.013,144.08c-7.283-2.188-14.344-6.311-20.173-11.117c-13.143-10.842-17.683-26.399-13.675-42.846
		c1.173-4.81-6.233-6.85-7.404-2.041c-4.5,18.468,0.13,36.319,14.332,49.177c6.969,6.311,15.833,11.515,24.88,14.233
		C469.727,152.913,471.744,145.502,467.013,144.08L467.013,144.08z"/>
</g>
<g>
	<path fill="#EDEDED" d="M473.388,249.431c-16.172-4.015-32.011-10.345-46.928-17.68c-25.622-12.6-52.716-31.176-62.656-59.252
		c-1.642-4.634-9.063-2.638-7.405,2.042c10.444,29.5,37.379,49.199,64.265,62.88c15.999,8.141,33.221,15.08,50.684,19.415
		C476.153,258.028,478.192,250.624,473.388,249.431L473.388,249.431z"/>
</g>
<g>
	<path fill="#EDEDED" d="M465.992,298.842c-15.545,0.232-31.513-3.191-46.234-7.852c-32.151-10.178-59.597-31.102-75.745-60.959
		c-2.356-4.356-8.986-0.48-6.631,3.875c16.831,31.119,45.189,52.668,78.417,63.863c15.816,5.329,33.396,9.003,50.192,8.752
		C470.94,306.446,470.947,298.767,465.992,298.842L465.992,298.842z"/>
</g>
<g>
	<path fill="#EDEDED" d="M454.446,331.671c-16.644-1.218-33.311-4.658-49.391-8.98c-28.783-7.737-60.094-20.457-78.554-45.039
		c-2.935-3.908-9.607-0.088-6.63,3.875c19.162,25.52,50.009,39.108,79.899,47.669c17.706,5.07,36.27,8.808,54.675,10.154
		C459.39,339.713,459.355,332.031,454.446,331.671L454.446,331.671z"/>
</g>
<g opacity="0.2">
	<path d="M126.818,370.627c0,0,17.919,50.994,41.49,57.365c29.92,8.086,125.493,12.668,152.842-54.893
		c8.13-40.524-2.979-49.013-2.979-49.013S273.658,385.058,126.818,370.627z"/>
	<path d="M311.18,251.569c0,0,2.887-23.812-29.585-44.737c15.154-36.079-25.254-45.458-25.254-45.458s7.215-66.385-58.085-72.158
		c-23.796-3.667-19.122-23.45-19.122-23.45s8.659-15.876,22.008-3.607c-18.188-27.945-48.889-6.671-58.582,2.568
		c-9.692,9.238-23.046,39.601-5.278,77.166c-11.185,4.329-15.513,15.875-15.513,15.875s-1.083,5.051,0,8.658
		c1.082,3.609-24.894,16.958-4.33,41.131c7.937,18.4-16.235,26.337-16.235,26.337s-5.051,9.38,12.627,14.791
		c17.679,5.413-18.038,30.508-18.038,30.508s1.804,10.984,15.152,15.673c13.349,4.69-15.152,18.76-18.761,20.565
		c-3.607,1.805,7.576,18.76,12.266,20.565c-7.215,13.35,7.216,22.729,7.216,22.729s140.525,27.06,212.141-50.871
		C338.96,263.834,311.18,251.569,311.18,251.569z"/>
	<path d="M227.116,560.4c15.194,13.697,67.708,19.054,90.918-21.647c1.805-44.015-13.893-123.029-13.893-123.029
		s-43.833,42.935-122.123,24.536C206.551,508.086,211.923,546.703,227.116,560.4z"/>
	<path d="M168.309,427.992c0,0,91.455,23.451,143.653-37.184c0.064,16.596-7.82,24.916-7.82,24.916s-40.225,45.46-122.123,24.536
		C174.835,438.397,168.309,427.992,168.309,427.992z"/>
	<path d="M117.576,359.689c0,0,142.781,24.407,207.754-57.432c-3.968,18.667-7.158,21.828-7.158,21.828
		s-43.397,66.354-189.142,52.288C121.979,375.588,117.576,359.689,117.576,359.689z"/>
</g>
<g>
	<path fill="#DFB783" d="M120.212,373.32c0,0,17.918,50.995,41.49,57.365c29.92,8.086,125.492,12.668,152.841-54.893
		c8.131-40.524-2.979-49.014-2.979-49.014S267.051,387.751,120.212,373.32z"/>
	<path fill="#F6F6F5" d="M304.573,254.261c0,0,2.886-23.812-29.585-44.737c15.153-36.078-25.254-45.458-25.254-45.458
		s7.215-66.385-58.087-72.158c-23.796-3.667-19.122-23.45-19.122-23.45s8.659-15.875,22.009-3.607
		c-18.188-27.945-51.188-11.606-60.403,0.105c-8.28,10.521-21.224,42.064-3.456,79.628c-11.184,4.33-15.513,15.874-15.513,15.874
		s-1.083,5.053,0,8.658c1.083,3.609-24.894,16.958-4.33,41.131c7.938,18.401-13.449,17.527-16.236,26.338
		c-2.787,8.81,7.111,9.741,12.628,14.791c13.636,12.485-18.617,22.628-18.039,30.508c0.577,7.88,1.804,10.984,15.152,15.673
		c13.35,4.69-18.8,7.396-18.761,20.565c0.037,12.169,17.242,18.303,21.933,20.106c-26.622,13.997,3.459,24.157,3.459,24.157
		s134.616,26.09,206.231-51.839C332.353,266.527,304.573,254.261,304.573,254.261z"/>
	<path fill="#E6BE92" d="M220.509,563.093c15.193,13.696,67.708,19.055,90.917-21.648c1.804-44.014-13.893-123.029-13.893-123.029
		s-43.832,42.936-122.124,24.537C199.944,510.779,205.315,549.396,220.509,563.093z"/>
	<path fill="#BE8D65" d="M161.702,430.685c0,0,91.455,23.45,143.653-37.184c0.063,16.596-7.82,24.915-7.82,24.915
		s-40.225,45.46-122.124,24.537C168.228,441.09,161.702,430.685,161.702,430.685z"/>
	<path fill="#CE9256" d="M110.968,362.382c0,0,142.78,24.407,207.755-57.432c-3.968,18.667-7.159,21.828-7.159,21.828
		s-43.396,66.354-189.142,52.289C115.372,378.28,110.968,362.382,110.968,362.382z"/>
</g>
<g>
	<path fill="#EDEDED" d="M191.059,212.099c22.479-16.079,43.117-43.004,41.967-71.758c-0.653-16.358-8.543-32.494-23.909-39.442
		c-7.009-3.17-15.537-4.813-23.243-3.811c-4.839,0.63-4.9,8.317,0,7.679c6.291-0.818,12.905,0.314,18.79,2.531
		c14.531,5.475,20.554,21.222,20.755,35.713c0.344,24.755-19.612,49.135-38.236,62.456
		C183.193,208.321,187.022,214.986,191.059,212.099L191.059,212.099z"/>
</g>
<g>
	<path fill="#EDEDED" d="M248.196,181.302c2.195,6.586,1.538,14.465,0.111,21.299c-4.363,20.896-19.75,37.454-36.093,50.149
		c-3.908,3.035,1.57,8.427,5.431,5.429c17.525-13.611,33.085-31.373,38.067-53.535c1.781-7.928,2.516-17.501-0.111-25.382
		C254.044,174.586,246.625,176.59,248.196,181.302L248.196,181.302z"/>
</g>
<g>
	<path fill="#EDEDED" d="M273.089,222.812c0.609,2.217,0.555,2.732,0.65,5.58c0.199,5.938-0.89,11.783-2.616,17.443
		c-7.234,23.728-27.234,42.028-46.899,55.8c-4.023,2.818-0.191,9.481,3.875,6.632c21.396-14.988,41.703-34.16,50.162-59.557
		c2.82-8.466,4.666-19.094,2.233-27.94C279.183,216.001,271.774,218.028,273.089,222.812L273.089,222.812z"/>
</g>
<g>
	<path fill="#EDEDED" d="M298.568,262.921c0.104,10.044-3.317,20.762-7.732,29.963c-11.625,24.227-34.364,39.717-59.379,47.871
		c-4.687,1.528-2.681,8.944,2.041,7.405c26.717-8.708,50.686-25.079,63.584-50.621c5.239-10.377,9.286-22.833,9.165-34.618
		C306.196,257.971,298.517,257.967,298.568,262.921L298.568,262.921z"/>
</g>
<g>
	<path fill="#EDEDED" d="M121.232,225.493c22.694-7.771,45.965-19.685,63.211-36.515c13.289-12.968,19.304-30.415,18.486-48.928
		c-0.449-10.175-3.737-22.176-11.093-29.691c-3.468-3.543-8.896,1.89-5.43,5.43c5.934,6.063,8.519,16.898,8.903,25.591
		c0.782,17.687-6.024,32.709-18.763,44.514c-15.815,14.654-37.03,25.235-57.355,32.193
		C114.534,219.682,116.534,227.101,121.232,225.493L121.232,225.493z"/>
</g>
<g>
	<path fill="#EDEDED" d="M127.605,165.842c9.124-2.741,17.766-7.992,24.881-14.231c14.347-12.585,18.774-30.941,14.332-49.178
		c-1.172-4.81-8.576-2.769-7.405,2.042c4.055,16.644-0.654,31.772-13.676,42.846c-5.721,4.864-12.943,8.946-20.174,11.118
		C120.834,159.858,122.851,167.271,127.605,165.842L127.605,165.842z"/>
</g>
<g>
	<path fill="#EDEDED" d="M121.232,271.193c17.49-4.343,34.627-11.338,50.684-19.415c26.898-13.531,53.855-33.479,64.264-62.88
		c1.657-4.68-5.764-6.677-7.405-2.042c-9.97,28.165-37.043,46.515-62.657,59.252c-14.867,7.394-30.777,13.67-46.928,17.679
		C114.387,264.979,116.426,272.385,121.232,271.193L121.232,271.193z"/>
</g>
<g>
	<path fill="#EDEDED" d="M126.584,320.876c16.842,0.251,34.307-3.51,50.192-8.752c33.217-10.962,61.666-32.888,78.418-63.863
		c2.355-4.355-4.275-8.232-6.631-3.875c-16.223,29.994-43.582,50.564-75.746,60.959c-14.661,4.741-30.729,8.085-46.235,7.852
		C121.63,313.124,121.637,320.803,126.584,320.876L126.584,320.876z"/>
</g>
<g>
	<path fill="#EDEDED" d="M138.13,353.708c18.058-1.322,36.181-5.018,53.591-9.848c30.241-8.391,61.652-22.228,80.984-47.974
		c2.977-3.963-3.695-7.785-6.63-3.875c-18.289,24.356-49.034,36.853-77.477,44.745c-16.382,4.544-33.477,8.03-50.469,9.274
		C133.223,346.386,133.188,354.069,138.13,353.708L138.13,353.708z"/>
</g>
</svg>
